<?xml version="1.0" encoding="UTF-8"?>
<!-- Generator: visioncortex VTracer 0.6.4 -->
<svg version="1.1" xmlns="http://www.w3.org/2000/svg" width="250" height="76">
<path d="M0 0 C1 1 1 1 1.09765625 3.28515625 C1.08605469 4.20167969 1.07445312 5.11820313 1.0625 6.0625 C1.05347656 6.98160156 1.04445312 7.90070312 1.03515625 8.84765625 C1.02355469 9.55792969 1.01195312 10.26820312 1 11 C-0.175625 10.67 -1.35125 10.34 -2.5625 10 C-9.84549752 8.39056176 -19.00730923 7.20302333 -25.93359375 10.3203125 C-26.61550781 10.87460938 -27.29742187 11.42890625 -28 12 C-28.41746608 15.12635209 -28.41746608 15.12635209 -28 18 C-23.62454876 20.88618155 -18.50702049 20.35519652 -13.46289062 20.390625 C-7.89309625 20.56854212 -4.60448846 21.82126685 0 25 C3.62994642 29.91799192 3.7002731 35.11003172 3 41 C1.06629806 46.49578445 -1.9470151 49.34334153 -7.015625 52.09375 C-11.45884965 53.44300147 -15.75846931 53.28847109 -20.375 53.25 C-21.75558594 53.26160156 -21.75558594 53.26160156 -23.1640625 53.2734375 C-28.50039097 53.25819085 -32.95373388 52.75159651 -38 51 C-38 47.7 -38 44.4 -38 41 C-37.16597656 41.144375 -36.33195312 41.28875 -35.47265625 41.4375 C-22.99399265 43.92179759 -22.99399265 43.92179759 -11 41 C-8.58878141 39.04366025 -8.58878141 39.04366025 -8.875 35.375 C-8.91625 34.26125 -8.9575 33.1475 -9 32 C-10.05058594 31.95101562 -11.10117187 31.90203125 -12.18359375 31.8515625 C-31.71600374 30.85574696 -31.71600374 30.85574696 -37 26.5625 C-40.91008854 21.55269905 -40.47180294 16.09848988 -40 10 C-38.28288567 4.75326175 -35.84657803 2.56045632 -31 0 C-21.16766724 -3.44994132 -9.94168767 -2.91028037 0 0 Z " fill="#002392" transform="translate(46,5)"/>
<path d="M0 0 C1.20269531 -0.02578125 2.40539062 -0.0515625 3.64453125 -0.078125 C8.7756455 0.39708293 12.01197784 1.97916524 15.5 5.75 C19.77284578 12.08014189 18.1875 15.16458058 18.1875 24.25 C9.6075 24.25 1.0275 24.25 -7.8125 24.25 C-5.75108533 28.55413057 -5.75108533 28.55413057 -1.8125 30.25 C0.3090586 30.52178081 0.3090586 30.52178081 2.515625 30.4453125 C3.31484375 30.43886719 4.1140625 30.43242188 4.9375 30.42578125 C5.7625 30.40902344 6.5875 30.39226563 7.4375 30.375 C8.69820312 30.36146484 8.69820312 30.36146484 9.984375 30.34765625 C12.05220604 30.32415817 14.11988995 30.28828908 16.1875 30.25 C16.1875 33.22 16.1875 36.19 16.1875 39.25 C7.41557776 41.44298056 -3.81232965 41.77839831 -11.8125 37.25 C-16.36950931 33.25820115 -18.51537225 28.70411009 -19.03125 22.70703125 C-19.24834316 16.14900871 -19.00191377 9.74441236 -14.3828125 4.68359375 C-9.7053732 0.59956093 -6.04016856 0.07719065 0 0 Z M-6.3125 11.625 C-7.97787965 14.03552327 -7.97787965 14.03552327 -7.8125 16.25 C-2.5325 16.25 2.7475 16.25 8.1875 16.25 C7.5275 14.27 6.8675 12.29 6.1875 10.25 C1.55563935 7.93406968 -2.69172637 8.18526505 -6.3125 11.625 Z " fill="#002393" transform="translate(154.8125,17.75)"/>
<path d="M0 0 C3.96 0 7.92 0 12 0 C12.84884766 2.47306641 12.84884766 2.47306641 13.71484375 4.99609375 C14.45557673 7.14328176 15.19647043 9.29041433 15.9375 11.4375 C16.49727539 13.07041992 16.49727539 13.07041992 17.06835938 14.73632812 C17.60493164 16.28803711 17.60493164 16.28803711 18.15234375 17.87109375 C18.48226318 18.82943115 18.81218262 19.78776855 19.15209961 20.77514648 C19.80334076 22.93965248 19.80334076 22.93965248 21 24 C21.3556604 22.9627478 21.3556604 22.9627478 21.71850586 21.90454102 C22.78849543 18.78948439 23.86293565 15.67598131 24.9375 12.5625 C25.31068359 11.47388672 25.68386719 10.38527344 26.06835938 9.26367188 C26.60493164 7.71196289 26.60493164 7.71196289 27.15234375 6.12890625 C27.48226318 5.17056885 27.81218262 4.21223145 28.15209961 3.22485352 C29 1 29 1 30 0 C31.85287502 -0.07226502 33.70833878 -0.0838122 35.5625 -0.0625 C36.57441406 -0.05347656 37.58632812 -0.04445313 38.62890625 -0.03515625 C39.41136719 -0.02355469 40.19382813 -0.01195313 41 0 C40.28331117 4.70685532 38.59930326 8.87660348 36.83203125 13.265625 C36.35608772 14.45487579 36.35608772 14.45487579 35.87052917 15.66815186 C35.19787884 17.34336204 34.52280068 19.01759915 33.84545898 20.69091797 C32.82322162 23.22343795 31.81661742 25.76180351 30.81054688 28.30078125 C22.18923042 49.80725776 22.18923042 49.80725776 13 56 C11.68 56 10.36 56 9 56 C7.68 53.69 6.36 51.38 5 49 C5.56589844 48.52949219 6.13179687 48.05898437 6.71484375 47.57421875 C7.44832031 46.95160156 8.18179688 46.32898438 8.9375 45.6875 C10.03384766 44.76517578 10.03384766 44.76517578 11.15234375 43.82421875 C13.23820366 42.04024481 13.23820366 42.04024481 14 39 C13.10157539 36.24126172 12.12958611 33.61760637 11.03515625 30.9375 C10.72299667 30.14980225 10.4108371 29.36210449 10.08921814 28.55053711 C9.08915727 26.03005976 8.07672842 23.51480637 7.0625 21 C6.05333492 18.48465063 5.04693148 15.96829658 4.04649353 13.44946289 C3.42316372 11.88136985 2.79454533 10.31536678 2.16017151 8.75170898 C0.94022309 5.69305206 0 3.32499226 0 0 Z " fill="#002392" transform="translate(203,18)"/>
<path d="M0 0 C1.10601562 0.09023438 2.21203125 0.18046875 3.3515625 0.2734375 C6.375 0.625 6.375 0.625 10.375 1.625 C10.375 4.925 10.375 8.225 10.375 11.625 C8.1165625 11.13 8.1165625 11.13 5.8125 10.625 C-2.67997023 8.89363145 -2.67997023 8.89363145 -10.625 11.625 C-10.295 12.615 -9.965 13.605 -9.625 14.625 C-8.52800781 14.72296875 -7.43101563 14.8209375 -6.30078125 14.921875 C-4.84626122 15.072019 -3.39183882 15.22311083 -1.9375 15.375 C-1.21626953 15.436875 -0.49503906 15.49875 0.24804688 15.5625 C5.04320172 16.08799642 7.89362653 17.03046525 11.375 20.625 C13.19164929 26.07494787 13.23236891 30.87850778 10.6875 36.0625 C7.84543702 39.21181303 5.63384966 40.41461291 1.36450195 40.81225586 C-0.96887667 40.89391012 -3.29037011 40.8977399 -5.625 40.875 C-6.4190625 40.88273437 -7.213125 40.89046875 -8.03125 40.8984375 C-12.34373638 40.88406255 -15.69628619 40.62104008 -19.625 38.625 C-19.625 35.655 -19.625 32.685 -19.625 29.625 C-18.78710938 29.78871094 -17.94921875 29.95242187 -17.0859375 30.12109375 C-13.41982693 30.65487283 -9.95260615 30.72243025 -6.25 30.6875 C-5.00476563 30.67847656 -3.75953125 30.66945313 -2.4765625 30.66015625 C-1.53554687 30.64855469 -0.59453125 30.63695313 0.375 30.625 C0.375 29.305 0.375 27.985 0.375 26.625 C-3.83237619 25.22254127 -7.98422824 25.34635906 -12.3984375 25.19921875 C-16.21431902 24.52012119 -17.90306878 23.34198225 -20.625 20.625 C-22.28536758 15.64389727 -22.42358847 10.66583721 -20.5 5.75 C-15.11718891 -0.35051924 -7.6126574 -0.65964479 0 0 Z " fill="#002392" transform="translate(94.625,17.375)"/>
<path d="M0 0 C1.31484375 0.01546875 2.6296875 0.0309375 3.984375 0.046875 C7.25 0.25 7.25 0.25 9.25 1.25 C9.25 4.22 9.25 7.19 9.25 10.25 C7.1771875 9.940625 7.1771875 9.940625 5.0625 9.625 C1.24073336 9.21638344 -1.43438962 9.03959308 -4.75 11.25 C-5.41 12.9 -6.07 14.55 -6.75 16.25 C-3.12 16.25 0.51 16.25 4.25 16.25 C4.25 19.22 4.25 22.19 4.25 25.25 C0.62 25.25 -3.01 25.25 -6.75 25.25 C-6.75 35.48 -6.75 45.71 -6.75 56.25 C-10.38 56.25 -14.01 56.25 -17.75 56.25 C-17.84915983 49.82711245 -17.92160705 43.40467429 -17.96972656 36.98120117 C-17.98979439 34.79785394 -18.01705505 32.61456014 -18.05175781 30.43139648 C-18.10048782 27.28616115 -18.12301755 24.1416388 -18.140625 20.99609375 C-18.16127014 20.0260289 -18.18191528 19.05596405 -18.20318604 18.0565033 C-18.20520577 11.90335421 -17.40034422 8.25968263 -13.75 3.25 C-9.21307644 0.09722261 -5.44183639 -0.10754617 0 0 Z " fill="#002392" transform="translate(197.75,1.75)"/>
<path d="M0 0 C2.64 0 5.28 0 8 0 C8.33 2.31 8.66 4.62 9 7 C12.3 7 15.6 7 19 7 C19 9.97 19 12.94 19 16 C16.03 16 13.06 16 10 16 C10.33 22.93 10.66 29.86 11 37 C13.64 37.33 16.28 37.66 19 38 C19 40.97 19 43.94 19 47 C16.93816367 47.08150744 14.87538651 47.1394194 12.8125 47.1875 C11.08966797 47.23970703 11.08966797 47.23970703 9.33203125 47.29296875 C5.6955965 46.97323533 3.8894086 46.18158273 1 44 C-0.14315747 41.71368506 -0.12112732 40.45652594 -0.11352539 37.91748047 C-0.11344986 37.07675995 -0.11337433 36.23603943 -0.11329651 35.36984253 C-0.10813522 34.46146637 -0.10297394 33.55309021 -0.09765625 32.6171875 C-0.0962413 31.68778351 -0.09482635 30.75837952 -0.09336853 29.80081177 C-0.08776053 26.82550876 -0.07520668 23.85028036 -0.0625 20.875 C-0.05748603 18.86067817 -0.05292295 16.84635516 -0.04882812 14.83203125 C-0.0377885 9.88799198 -0.02051849 4.94400865 0 0 Z " fill="#002392" transform="translate(113,11)"/>
<path d="M0 0 C3.63 0 7.26 0 11 0 C11 13.2 11 26.4 11 40 C7.37 40 3.74 40 0 40 C0 26.8 0 13.6 0 0 Z " fill="#002690" transform="translate(55,18)"/>
<path d="M0 0 C3.63 0 7.26 0 11 0 C11 2.64 11 5.28 11 8 C7.37 8 3.74 8 0 8 C0 5.36 0 2.72 0 0 Z " fill="#002690" transform="translate(55,4)"/>
</svg>
